<?xml version="1.0" encoding="iso-8859-1"?>
<!-- Generator: Adobe Illustrator 18.0.0, SVG Export Plug-In . SVG Version: 6.00 Build 0)  -->
<!DOCTYPE svg PUBLIC "-//W3C//DTD SVG 1.1//EN" "http://www.w3.org/Graphics/SVG/1.1/DTD/svg11.dtd">
<svg version="1.1" id="Capa_1" xmlns="http://www.w3.org/2000/svg" xmlns:xlink="http://www.w3.org/1999/xlink" x="0px" y="0px"
	 viewBox="0 0 59 59" style="enable-background:new 0 0 59 59;" xml:space="preserve">
<path d="M40.456,42.444c-0.103-0.658-0.201-1.342-0.295-2.065c0.61-0.461,1.016-1.126,1.147-1.883
	c0.136-0.789-0.043-1.585-0.505-2.239c-0.301-0.427-0.699-0.761-1.159-0.979c-0.045-0.635-0.084-1.271-0.115-1.906
	c0.023-0.016,0.047-0.032,0.07-0.048c0.655-0.462,1.091-1.151,1.228-1.941c0.136-0.789-0.043-1.585-0.505-2.239
	c-0.236-0.335-0.533-0.611-0.878-0.821c0.006-0.567,0.017-1.135,0.035-1.702c0.105-0.057,0.208-0.119,0.306-0.188
	c0.655-0.462,1.091-1.151,1.228-1.941c0.136-0.789-0.043-1.585-0.504-2.238c-0.194-0.276-0.432-0.516-0.703-0.709
	c0.058-0.618,0.122-1.235,0.193-1.852c1.002-0.496,1.674-1.533,1.674-2.69c0-0.839-0.355-1.628-0.958-2.188
	c0.088-0.501,0.181-1.002,0.278-1.502c1.206-0.392,2.065-1.519,2.065-2.845c0-0.991-0.48-1.893-1.266-2.446
	c-0.097-2.104-0.907-4.026-2.316-5.464C37.855,0.908,35.552,0,32.987,0c-2.224,0-4.454,0.936-6.636,2.782
	C26.017,2.655,25.663,2.59,25.3,2.59c-1.654,0-3,1.346-3,3c0,0.469,0.11,0.925,0.318,1.338c-0.288,0.4-0.538,0.77-0.746,1.088
	C20.136,7.833,18.561,9.241,18.561,11c0,0.744,0.272,1.443,0.753,1.983c-0.13,0.351-0.256,0.711-0.375,1.081
	c-1.357,0.287-2.378,1.494-2.378,2.936c0,0.961,0.448,1.833,1.188,2.389c-0.087,0.63-0.162,1.281-0.224,1.948
	c-0.107,0.057-0.211,0.121-0.311,0.19c-1.351,0.954-1.675,2.829-0.722,4.181c0.223,0.316,0.501,0.581,0.823,0.787
	c0.002,0.607,0.014,1.221,0.034,1.836c-0.046,0.028-0.091,0.058-0.135,0.089c-1.351,0.954-1.675,2.829-0.722,4.182
	c0.313,0.442,0.729,0.784,1.21,1.001c0.066,0.657,0.139,1.306,0.216,1.943c-0.646,0.462-1.075,1.146-1.21,1.93
	c-0.137,0.789,0.043,1.585,0.504,2.239c0.372,0.527,0.894,0.91,1.493,1.108c0.093,0.528,0.187,1.039,0.28,1.532
	c-0.071,0.061-0.139,0.124-0.203,0.19c-1.147,1.191-1.111,3.095,0.081,4.242c0.35,0.336,0.771,0.578,1.23,0.713
	c0.285,1.168,0.502,1.953,0.548,2.09c0.001,0.004,0.002,0.008,0.004,0.012c-0.808,1.186-0.667,2.82,0.4,3.849
	c0.474,0.457,1.078,0.738,1.73,0.812C24.8,57.449,27.515,59,31.061,59c5.083,0,9.538-3.784,10.362-8.803
	c0.124-0.755,0.124-1.559-0.003-2.441c0.142-0.102,0.274-0.216,0.396-0.342c0.556-0.577,0.853-1.336,0.838-2.138
	c-0.015-0.801-0.341-1.548-0.918-2.103C41.371,42.823,40.932,42.575,40.456,42.444z M24.121,32.332c0,0.553-0.448,1-1,1
	s-1-0.447-1-1c0-1.31,1.065-2.375,2.375-2.375s2.375,1.065,2.375,2.375c0,0.553-0.448,1-1,1s-1-0.447-1-1
	c0-0.207-0.168-0.375-0.375-0.375S24.121,32.125,24.121,32.332z M28.246,45.001c-0.552,0-1-0.447-1-1
	c0-0.207-0.168-0.375-0.375-0.375s-0.375,0.168-0.375,0.375c0,0.553-0.448,1-1,1s-1-0.447-1-1c0-1.31,1.065-2.375,2.375-2.375
	s2.375,1.065,2.375,2.375C29.246,44.554,28.798,45.001,28.246,45.001z M28.311,21.375c-0.552,0-1-0.447-1-1
	c0-0.207-0.168-0.375-0.375-0.375s-0.375,0.168-0.375,0.375c0,0.553-0.448,1-1,1s-1-0.447-1-1c0-1.31,1.065-2.375,2.375-2.375
	s2.375,1.065,2.375,2.375C29.311,20.928,28.863,21.375,28.311,21.375z M30.045,8.625c-0.207,0-0.375,0.168-0.375,0.375
	c0,0.553-0.448,1-1,1s-1-0.447-1-1c0-1.31,1.065-2.375,2.375-2.375S32.42,7.69,32.42,9c0,0.553-0.448,1-1,1s-1-0.447-1-1
	C30.42,8.793,30.252,8.625,30.045,8.625z M32.936,23.625c1.31,0,2.375,1.065,2.375,2.375c0,0.553-0.448,1-1,1s-1-0.447-1-1
	c0-0.207-0.168-0.375-0.375-0.375S32.561,25.793,32.561,26c0,0.553-0.448,1-1,1c-0.552,0-1-0.447-1-1
	C30.561,24.69,31.626,23.625,32.936,23.625z M34.561,51.375c-0.552,0-1-0.447-1-1c0-0.207-0.168-0.375-0.375-0.375
	s-0.375,0.168-0.375,0.375c0,0.553-0.448,1-1,1c-0.552,0-1-0.447-1-1c0-1.31,1.065-2.375,2.375-2.375
	c1.31,0,2.375,1.065,2.375,2.375C35.561,50.928,35.113,51.375,34.561,51.375z M34.561,37c-0.552,0-1-0.447-1-1
	c0-0.207-0.168-0.375-0.375-0.375S32.811,35.793,32.811,36c0,0.553-0.448,1-1,1c-0.552,0-1-0.447-1-1
	c0-1.31,1.065-2.375,2.375-2.375c1.31,0,2.375,1.065,2.375,2.375C35.561,36.553,35.113,37,34.561,37z M35.311,16.375
	c-0.552,0-1-0.447-1-1c0-0.207-0.168-0.375-0.375-0.375s-0.375,0.168-0.375,0.375c0,0.553-0.448,1-1,1s-1-0.447-1-1
	c0-1.31,1.065-2.375,2.375-2.375s2.375,1.065,2.375,2.375C36.311,15.928,35.863,16.375,35.311,16.375z"/>
<g>
</g>
<g>
</g>
<g>
</g>
<g>
</g>
<g>
</g>
<g>
</g>
<g>
</g>
<g>
</g>
<g>
</g>
<g>
</g>
<g>
</g>
<g>
</g>
<g>
</g>
<g>
</g>
<g>
</g>
</svg>
